REM DIRINDEX 1\2,1\3,1\4,1\5
REM DIRNAME cjc093,folder01,folder02,folder03,folder04
TITLE ""
FILE "Round-15-352-353.mp3" MP3
  TRACK 01 AUDIO
    TITLE "0:"
    INDEX 01 00:00:00
  TRACK 02 AUDIO
    TITLE "5:cjc093_3834"
    INDEX 01 00:00:05
  TRACK 03 AUDIO
    TITLE "0:"
    INDEX 01 00:02:02
  TRACK 04 AUDIO
    TITLE "2:cjc093_3835"
    INDEX 01 00:02:47
  TRACK 05 AUDIO
    TITLE "0:"
    INDEX 01 00:03:61
  TRACK 06 AUDIO
    TITLE "3:cjc093_3836"
    INDEX 01 00:04:03
  TRACK 07 AUDIO
    TITLE "0:"
    INDEX 01 00:05:20
  TRACK 08 AUDIO
    TITLE "4:cjc093_3837"
    INDEX 01 00:05:28
  TRACK 09 AUDIO
    TITLE "0:"
    INDEX 01 00:08:38
  TRACK 10 AUDIO
    TITLE "2:cjc093_3838"
    INDEX 01 00:09:51
  TRACK 11 AUDIO
    TITLE "0:"
    INDEX 01 00:10:66
  TRACK 12 AUDIO
    TITLE "3:cjc093_3839"
    INDEX 01 00:11:27
  TRACK 13 AUDIO
    TITLE "0:"
    INDEX 01 00:13:59
  TRACK 14 AUDIO
    TITLE "4:cjc093_3840"
    INDEX 01 00:13:69
  TRACK 15 AUDIO
    TITLE "0:"
    INDEX 01 00:19:46
  TRACK 16 AUDIO
    TITLE "2:cjc093_3841"
    INDEX 01 00:20:59
  TRACK 17 AUDIO
    TITLE "0:"
    INDEX 01 00:22:01
  TRACK 18 AUDIO
    TITLE "3:cjc093_3842"
    INDEX 01 00:22:25
  TRACK 19 AUDIO
    TITLE "0:"
    INDEX 01 00:23:36
  TRACK 20 AUDIO
    TITLE "4:cjc093_3843"
    INDEX 01 00:24:04
  TRACK 21 AUDIO
    TITLE "0:"
    INDEX 01 00:26:36
  TRACK 22 AUDIO
    TITLE "3:cjc093_3844"
    INDEX 01 00:27:45
  TRACK 23 AUDIO
    TITLE "0:"
    INDEX 01 00:28:45
  TRACK 24 AUDIO
    TITLE "4:cjc093_3845"
    INDEX 01 00:28:74
  TRACK 25 AUDIO
    TITLE "0:"
    INDEX 01 00:32:37
  TRACK 26 AUDIO
    TITLE "2:cjc093_3846"
    INDEX 01 00:33:48
  TRACK 27 AUDIO
    TITLE "0:"
    INDEX 01 00:34:49
  TRACK 28 AUDIO
    TITLE "3:cjc093_3847"
    INDEX 01 00:35:15
  TRACK 29 AUDIO
    TITLE "0:"
    INDEX 01 00:37:22
  TRACK 30 AUDIO
    TITLE "4:cjc093_3848"
    INDEX 01 00:37:40
  TRACK 31 AUDIO
    TITLE "0:"
    INDEX 01 00:41:36
  TRACK 32 AUDIO
    TITLE "2:cjc093_3849"
    INDEX 01 00:42:47
  TRACK 33 AUDIO
    TITLE "0:"
    INDEX 01 00:44:09
  TRACK 34 AUDIO
    TITLE "3:cjc093_3850"
    INDEX 01 00:44:44
  TRACK 35 AUDIO
    TITLE "0:"
    INDEX 01 00:46:62
  TRACK 36 AUDIO
    TITLE "4:cjc093_3851"
    INDEX 01 00:47:25
  TRACK 37 AUDIO
    TITLE "0:"
    INDEX 01 00:50:72
  TRACK 38 AUDIO
    TITLE "2:cjc093_3852"
    INDEX 01 00:52:06
  TRACK 39 AUDIO
    TITLE "0:"
    INDEX 01 00:53:17
  TRACK 40 AUDIO
    TITLE "3:cjc093_3853"
    INDEX 01 00:53:51
  TRACK 41 AUDIO
    TITLE "0:"
    INDEX 01 00:55:55
  TRACK 42 AUDIO
    TITLE "4:cjc093_3854"
    INDEX 01 00:56:18
  TRACK 43 AUDIO
    TITLE "0:"
    INDEX 01 00:59:24
  TRACK 44 AUDIO
    TITLE "2:cjc093_3855"
    INDEX 01 01:00:35
  TRACK 45 AUDIO
    TITLE "0:"
    INDEX 01 01:01:52
  TRACK 46 AUDIO
    TITLE "3:cjc093_3856"
    INDEX 01 01:02:14
  TRACK 47 AUDIO
    TITLE "0:"
    INDEX 01 01:03:53
  TRACK 48 AUDIO
    TITLE "4:cjc093_3857"
    INDEX 01 01:03:65
  TRACK 49 AUDIO
    TITLE "0:"
    INDEX 01 01:08:54
  TRACK 50 AUDIO
    TITLE "2:cjc093_3858"
    INDEX 01 01:09:65
  TRACK 51 AUDIO
    TITLE "0:"
    INDEX 01 01:11:11
  TRACK 52 AUDIO
    TITLE "3:cjc093_3859"
    INDEX 01 01:11:37
  TRACK 53 AUDIO
    TITLE "0:"
    INDEX 01 01:13:34
  TRACK 54 AUDIO
    TITLE "4:cjc093_3860"
    INDEX 01 01:13:55
  TRACK 55 AUDIO
    TITLE "0:"
    INDEX 01 01:18:02
  TRACK 56 AUDIO
    TITLE "2:cjc093_3861"
    INDEX 01 01:19:13
  TRACK 57 AUDIO
    TITLE "0:"
    INDEX 01 01:20:24
  TRACK 58 AUDIO
    TITLE "3:cjc093_3862"
    INDEX 01 01:21:10
  TRACK 59 AUDIO
    TITLE "0:"
    INDEX 01 01:23:52
  TRACK 60 AUDIO
    TITLE "4:cjc093_3863"
    INDEX 01 01:24:45
  TRACK 61 AUDIO
    TITLE "0:"
    INDEX 01 01:29:48
